<?xml version="1.0" encoding="utf-8"?>
<!-- Generator: Adobe Illustrator 20.0.0, SVG Export Plug-In . SVG Version: 6.00 Build 0)  -->
<svg version="1.1" id="Layer_1" xmlns="http://www.w3.org/2000/svg" xmlns:xlink="http://www.w3.org/1999/xlink" x="0px" y="0px"
	 viewBox="0 0 100 100" style="enable-background:new 0 0 100 100;" xml:space="preserve">
<style type="text/css">
	.st0{fill:#FFFFFF;}
</style>
<g>
	<g>
		<rect x="23.5" y="25" class="st0" width="5.5" height="22.1"/>
		<path class="st0" d="M41.7,25h-8.9V47h5.5v-5.6h3c6,0,9.8-3.2,9.8-8.4C51.1,28.1,47.5,25,41.7,25z M41.6,36.6h-3.3v-6.8h3.3
			c2.4,0,4,1.3,4,3.2C45.6,35.2,44,36.6,41.6,36.6z"/>
		<path class="st0" d="M64.8,24.5c-6.7,0-11.7,5.1-11.7,11.5c0,6.4,5,11.5,11.7,11.5c6.7,0,11.7-5.1,11.7-11.5
			C76.5,29.6,71.5,24.5,64.8,24.5z M64.8,42.4c-3.6,0-6.1-2.9-6.1-6.4c0-3.5,2.6-6.4,6.1-6.4c3.6,0,6.1,2.9,6.1,6.4
			C70.9,39.5,68.4,42.4,64.8,42.4z"/>
		<path class="st0" d="M4,4v37.8l1.2,1.2V96H96v-0.3V4H4z M5.8,95.4V43.6l31.8,31.9h0.7v0v0V63.4l10.6,12.1h4.3V53.4h-5.5v12.4
			L37,53.4h-4.2v16.3L29,65.8V53.4h-5.5v6.9L4.6,41.4V4.6h90.7v90.7H5.8z"/>
		<polygon class="st0" points="55.6,58.3 62.6,58.3 62.6,75.5 68.1,75.5 68.1,58.3 75.1,58.3 75.1,53.4 55.6,53.4 		"/>
	</g>
</g>
</svg>
