<?xml version="1.0" encoding="utf-8"?>
<!-- Generator: Adobe Illustrator 19.0.0, SVG Export Plug-In . SVG Version: 6.00 Build 0)  -->
<svg version="1.0" id="Layer_1" xmlns="http://www.w3.org/2000/svg" xmlns:xlink="http://www.w3.org/1999/xlink" x="0px" y="0px"
	 viewBox="-286 378.4 37.9 37.6" style="enable-background:new -286 378.4 37.9 37.6;" xml:space="preserve">
<style type="text/css">
	.st0{fill:#FFFFFF;}
</style>
<path class="st0" d="M-250.2,378.4h-33.7c-1.2,0-2.1,0.9-2.1,2.1v33.4c0,1.1,0.9,2.1,2.1,2.1h18.1v-14.6h-4.9v-5.7h4.9v-4.2
	c0-4.9,3-7.5,7.4-7.5c2.1,0,3.9,0.2,4.4,0.2v5.2h-3c-2.4,0-2.8,1.1-2.8,2.8v3.6h5.7l-0.9,5.6h-4.9V416h9.6c1.2,0,2.1-0.9,2.1-2.1
	v-33.4C-248.1,379.3-249.1,378.4-250.2,378.4L-250.2,378.4z"/>
</svg>
