<?xml version="1.0" encoding="utf-8"?>
<!-- Generator: Adobe Illustrator 19.0.0, SVG Export Plug-In . SVG Version: 6.00 Build 0)  -->
<svg version="1.0" id="Layer_1" xmlns="http://www.w3.org/2000/svg" xmlns:xlink="http://www.w3.org/1999/xlink" x="0px" y="0px"
	 viewBox="0 0 37.9 37.6" style="enable-background:new 0 0 37.9 37.6;" xml:space="preserve">
<style type="text/css">
	.st0{fill:#EB6F24;}
</style>
<path class="st0" d="M35.8,0H2.1C0.9,0,0,0.9,0,2.1v33.4c0,1.1,0.9,2.1,2.1,2.1h18.1V23h-4.9v-5.7h4.9v-4.2c0-4.9,3-7.5,7.4-7.5
	c2.1,0,3.9,0.2,4.4,0.2V11l-3,0c-2.4,0-2.8,1.1-2.8,2.8v3.6h5.7L31,23h-4.9v14.6h9.6c1.2,0,2.1-0.9,2.1-2.1V2.1
	C37.9,0.9,36.9,0,35.8,0L35.8,0z M35.8,0"/>
</svg>
