<?xml version="1.0" encoding="utf-8"?>
<!-- Generator: Adobe Illustrator 19.0.0, SVG Export Plug-In . SVG Version: 6.00 Build 0)  -->
<svg version="1.0" id="Layer_1" xmlns="http://www.w3.org/2000/svg" xmlns:xlink="http://www.w3.org/1999/xlink" x="0px" y="0px"
	 viewBox="0 0 38.3 38" style="enable-background:new 0 0 38.3 38;" xml:space="preserve">
<style type="text/css">
	.st0{fill:#EB6F24;}
</style>
<path class="st0" d="M27.7,0H10.6C4.7,0,0,4.7,0,10.5v17C0,33.3,4.7,38,10.6,38h17.1c5.8,0,10.6-4.7,10.6-10.5v-17
	C38.3,4.7,33.5,0,27.7,0L27.7,0z M34.9,27.5c0,3.9-3.2,7.1-7.2,7.1H10.6c-4,0-7.2-3.2-7.2-7.1v-17c0-3.9,3.2-7.1,7.2-7.1h17.1
	c4,0,7.2,3.2,7.2,7.1V27.5z M34.9,27.5"/>
<path class="st0" d="M19.1,9.2c-5.4,0-9.9,4.4-9.9,9.8c0,5.4,4.4,9.8,9.9,9.8c5.4,0,9.9-4.4,9.9-9.8C29,13.6,24.6,9.2,19.1,9.2
	L19.1,9.2z M19.1,25.4c-3.6,0-6.5-2.9-6.5-6.4c0-3.5,2.9-6.4,6.5-6.4c3.6,0,6.5,2.9,6.5,6.4C25.6,22.5,22.7,25.4,19.1,25.4
	L19.1,25.4z M19.1,25.4"/>
<path class="st0" d="M29.4,6.3c-0.7,0-1.3,0.3-1.8,0.7c-0.5,0.5-0.7,1.1-0.7,1.7c0,0.6,0.3,1.3,0.7,1.7c0.5,0.5,1.1,0.7,1.8,0.7
	c0.7,0,1.3-0.3,1.8-0.7c0.5-0.5,0.7-1.1,0.7-1.7c0-0.7-0.3-1.3-0.7-1.7C30.7,6.6,30.1,6.3,29.4,6.3L29.4,6.3z M29.4,6.3"/>
</svg>
