<?xml version="1.0" encoding="utf-8"?>
<!-- Generator: Adobe Illustrator 19.0.0, SVG Export Plug-In . SVG Version: 6.00 Build 0)  -->
<svg version="1.0" id="Layer_1" xmlns="http://www.w3.org/2000/svg" xmlns:xlink="http://www.w3.org/1999/xlink" x="0px" y="0px"
	 viewBox="-286 378 38.3 38" style="enable-background:new -286 378 38.3 38;" xml:space="preserve">
<style type="text/css">
	.st0{fill:#FFFFFF;}
</style>
<path class="st0" d="M-258.3,378h-17.1c-5.9,0-10.6,4.7-10.6,10.5v17c0,5.8,4.7,10.5,10.6,10.5h17.1c5.8,0,10.6-4.7,10.6-10.5v-17
	C-247.7,382.7-252.5,378-258.3,378L-258.3,378z M-251.1,405.5c0,3.9-3.2,7.1-7.2,7.1h-17.1c-4,0-7.2-3.2-7.2-7.1v-17
	c0-3.9,3.2-7.1,7.2-7.1h17.1c4,0,7.2,3.2,7.2,7.1V405.5z"/>
<path class="st0" d="M-266.9,387.2c-5.4,0-9.9,4.4-9.9,9.8s4.4,9.8,9.9,9.8c5.4,0,9.9-4.4,9.9-9.8S-261.4,387.2-266.9,387.2
	L-266.9,387.2z M-266.9,403.4c-3.6,0-6.5-2.9-6.5-6.4s2.9-6.4,6.5-6.4s6.5,2.9,6.5,6.4S-263.3,403.4-266.9,403.4L-266.9,403.4z"/>
<path class="st0" d="M-256.6,384.3c-0.7,0-1.3,0.3-1.8,0.7c-0.5,0.5-0.7,1.1-0.7,1.7c0,0.6,0.3,1.3,0.7,1.7c0.5,0.5,1.1,0.7,1.8,0.7
	c0.7,0,1.3-0.3,1.8-0.7c0.5-0.5,0.7-1.1,0.7-1.7c0-0.7-0.3-1.3-0.7-1.7C-255.3,384.6-255.9,384.3-256.6,384.3L-256.6,384.3z"/>
</svg>
