<?xml version="1.0" encoding="utf-8"?>
<!-- Generator: Adobe Illustrator 19.0.0, SVG Export Plug-In . SVG Version: 6.00 Build 0)  -->
<svg version="1.0" id="Layer_1" xmlns="http://www.w3.org/2000/svg" xmlns:xlink="http://www.w3.org/1999/xlink" x="0px" y="0px"
	 viewBox="0 0 37.8 37.5" style="enable-background:new 0 0 37.8 37.5;" xml:space="preserve">
<style type="text/css">
	.st0{fill:#EB6F24;}
</style>
<path class="st0" d="M34.3,0H3.4C1.5,0,0,1.5,0,3.4v30.7c0,1.9,1.5,3.4,3.4,3.4h30.9c1.9,0,3.4-1.5,3.4-3.4V3.4
	C37.8,1.5,36.2,0,34.3,0L34.3,0z M11.7,32.4c0,0.5-0.4,1-1,1H6.5c-0.5,0-1-0.4-1-1V14.8c0-0.5,0.4-1,1-1h4.2c0.5,0,1,0.4,1,1V32.4z
	 M8.6,12.1c-2.2,0-4-1.8-4-4c0-2.2,1.8-4,4-4c2.2,0,4,1.8,4,4C12.6,10.3,10.8,12.1,8.6,12.1L8.6,12.1z M33.8,32.5
	c0,0.5-0.4,0.9-0.9,0.9h-4.5c-0.5,0-0.9-0.4-0.9-0.9v-8.3c0-1.2,0.4-5.4-3.2-5.4c-2.8,0-3.4,2.9-3.5,4.1v9.5c0,0.5-0.4,0.9-0.9,0.9
	h-4.4c-0.5,0-0.9-0.4-0.9-0.9V14.7c0-0.5,0.4-0.9,0.9-0.9h4.4c0.5,0,0.9,0.4,0.9,0.9v1.5c1-1.5,2.6-2.7,5.9-2.7
	c7.3,0,7.2,6.7,7.2,10.5V32.5z M33.8,32.5"/>
</svg>
