<?xml version="1.0" encoding="utf-8"?>
<!-- Generator: Adobe Illustrator 19.0.0, SVG Export Plug-In . SVG Version: 6.00 Build 0)  -->
<svg version="1.0" id="Layer_1" xmlns="http://www.w3.org/2000/svg" xmlns:xlink="http://www.w3.org/1999/xlink" x="0px" y="0px"
	 viewBox="-286 378.5 37.8 37.5" style="enable-background:new -286 378.5 37.8 37.5;" xml:space="preserve">
<style type="text/css">
	.st0{fill:#FFFFFF;}
</style>
<path class="st0" d="M-251.7,378.5h-30.9c-1.9,0-3.4,1.5-3.4,3.4v30.7c0,1.9,1.5,3.4,3.4,3.4h30.9c1.9,0,3.4-1.5,3.4-3.4v-30.7
	C-248.2,380-249.8,378.5-251.7,378.5L-251.7,378.5z M-274.3,410.9c0,0.5-0.4,1-1,1h-4.2c-0.5,0-1-0.4-1-1v-17.6c0-0.5,0.4-1,1-1h4.2
	c0.5,0,1,0.4,1,1V410.9z M-277.4,390.6c-2.2,0-4-1.8-4-4c0-2.2,1.8-4,4-4c2.2,0,4,1.8,4,4C-273.4,388.8-275.2,390.6-277.4,390.6
	L-277.4,390.6z M-252.2,411c0,0.5-0.4,0.9-0.9,0.9h-4.5c-0.5,0-0.9-0.4-0.9-0.9v-8.3c0-1.2,0.4-5.4-3.2-5.4c-2.8,0-3.4,2.9-3.5,4.1
	v9.5c0,0.5-0.4,0.9-0.9,0.9h-4.4c-0.5,0-0.9-0.4-0.9-0.9v-17.7c0-0.5,0.4-0.9,0.9-0.9h4.4c0.5,0,0.9,0.4,0.9,0.9v1.5
	c1-1.5,2.6-2.7,5.9-2.7c7.3,0,7.2,6.7,7.2,10.5L-252.2,411L-252.2,411z"/>
</svg>
