<?xml version="1.0" encoding="utf-8"?>
<!-- Generator: Adobe Illustrator 19.0.0, SVG Export Plug-In . SVG Version: 6.00 Build 0)  -->
<svg version="1.0" id="Layer_1" xmlns="http://www.w3.org/2000/svg" xmlns:xlink="http://www.w3.org/1999/xlink" x="0px" y="0px"
	 viewBox="0 0 55.3 56" style="enable-background:new 0 0 55.3 56;" xml:space="preserve">
<style type="text/css">
	.st0{fill:#EB6F24;}
</style>
<path class="st0" d="M21.7,50L21.7,50l5.9,6l5.9-6l-5.9-6L21.7,50z"/>
<path class="st0" d="M33.6,6l-5.9-6l-5.9,6l5.9,6L33.6,6z"/>
<path class="st0" d="M21.7,38l-6.9-7l-3-3l3-3l6.9-7l3-3l-5.9-6L3,25l-3,3l3,3l15.8,16l5.9-6L21.7,38z"/>
<path class="st0" d="M39.5,12l-3-3l-5.9,6l-3,3l-3,3l-6.9,7l6.9,7l3,3l3,3l5.9,6l3-3l15.8-16L39.5,12z"/>
</svg>
