<?xml version="1.0" encoding="utf-8"?>
<!-- Generator: Adobe Illustrator 16.0.0, SVG Export Plug-In . SVG Version: 6.00 Build 0)  -->
<!DOCTYPE svg PUBLIC "-//W3C//DTD SVG 1.0//EN" "http://www.w3.org/TR/2001/REC-SVG-20010904/DTD/svg10.dtd">
<svg version="1.0" id="Layer_1" xmlns="http://www.w3.org/2000/svg" xmlns:xlink="http://www.w3.org/1999/xlink" x="0px" y="0px"
	 width="244px" height="143.75px" viewBox="0 0 244 143.75" enable-background="new 0 0 244 143.75" xml:space="preserve">
<radialGradient id="SVGID_1_" cx="71.875" cy="71.875" r="71.875" gradientUnits="userSpaceOnUse">
	<stop  offset="0.4159" style="stop-color:#F3903F"/>
	<stop  offset="0.6188" style="stop-color:#ED683C"/>
	<stop  offset="0.8202" style="stop-color:#ED673C"/>
	<stop  offset="0.8927" style="stop-color:#EC613C"/>
	<stop  offset="0.9444" style="stop-color:#EB573B"/>
	<stop  offset="0.986" style="stop-color:#E9463A"/>
	<stop  offset="1" style="stop-color:#E93E3A"/>
</radialGradient>
<circle fill="url(#SVGID_1_)" cx="71.875" cy="71.875" r="71.875"/>
<g>
	<path fill="#FFFFFF" stroke="#FFFFFF" stroke-miterlimit="10" d="M69.626,93.354c-0.06,0.072-0.126,0.108-0.198,0.108
		c-0.108,0-0.273-0.123-0.495-0.369c-0.222-0.245-0.546-0.513-0.972-0.801c-0.426-0.288-0.975-0.555-1.647-0.801
		c-0.672-0.246-1.512-0.369-2.52-0.369c-1.032,0-1.947,0.159-2.745,0.477c-0.798,0.318-1.467,0.741-2.007,1.27
		s-0.951,1.14-1.233,1.836c-0.282,0.696-0.423,1.422-0.423,2.178c0,0.972,0.189,1.782,0.567,2.43
		c0.378,0.648,0.873,1.194,1.485,1.639s1.314,0.813,2.106,1.106c0.792,0.295,1.596,0.576,2.412,0.847
		c0.816,0.27,1.62,0.555,2.412,0.854s1.494,0.682,2.106,1.144c0.612,0.462,1.107,1.032,1.485,1.71s0.567,1.527,0.567,2.547
		c0,1.032-0.174,1.995-0.522,2.889c-0.348,0.895-0.852,1.674-1.512,2.34c-0.66,0.666-1.47,1.191-2.43,1.575
		s-2.052,0.576-3.276,0.576c-0.853,0-1.614-0.075-2.286-0.225c-0.672-0.15-1.287-0.366-1.845-0.648
		c-0.558-0.282-1.071-0.624-1.539-1.026c-0.468-0.401-0.918-0.86-1.35-1.377l0.072-0.071c0.036-0.036,0.066-0.063,0.09-0.081
		c0.024-0.019,0.065-0.027,0.126-0.027c0.072,0,0.177,0.075,0.315,0.225c0.138,0.15,0.327,0.343,0.567,0.576
		c0.24,0.234,0.528,0.483,0.864,0.747c0.336,0.265,0.744,0.513,1.224,0.747s1.029,0.426,1.647,0.576s1.323,0.225,2.115,0.225
		c1.164,0,2.199-0.186,3.105-0.558c0.906-0.372,1.674-0.873,2.304-1.503c0.63-0.63,1.11-1.365,1.44-2.205s0.495-1.734,0.495-2.682
		c0-0.792-0.123-1.477-0.369-2.053c-0.246-0.576-0.579-1.07-0.999-1.484c-0.42-0.414-0.909-0.769-1.467-1.063
		s-1.155-0.558-1.791-0.792c-0.636-0.233-1.284-0.45-1.944-0.647c-0.66-0.198-1.308-0.417-1.944-0.657
		c-0.636-0.24-1.233-0.513-1.791-0.819c-0.558-0.306-1.047-0.678-1.467-1.116c-0.42-0.438-0.753-0.96-0.999-1.565
		c-0.246-0.606-0.369-1.323-0.369-2.151c0-0.804,0.15-1.575,0.45-2.313c0.3-0.738,0.738-1.389,1.314-1.953
		c0.576-0.564,1.287-1.014,2.133-1.351c0.846-0.335,1.815-0.504,2.907-0.504c1.224,0,2.307,0.198,3.249,0.595
		c0.942,0.396,1.827,1.025,2.655,1.89L69.626,93.354z"/>
	<path fill="#FFFFFF" stroke="#FFFFFF" stroke-miterlimit="10" d="M81.83,98.322c1.236,0,2.334,0.219,3.294,0.656
		c0.96,0.438,1.767,1.054,2.421,1.846c0.654,0.792,1.148,1.749,1.485,2.871c0.336,1.122,0.504,2.366,0.504,3.734
		s-0.168,2.607-0.504,3.718c-0.336,1.109-0.831,2.061-1.485,2.853c-0.654,0.792-1.461,1.401-2.421,1.827s-2.058,0.639-3.294,0.639
		c-1.248,0-2.349-0.213-3.303-0.639c-0.954-0.426-1.758-1.035-2.412-1.827c-0.654-0.792-1.149-1.743-1.485-2.853
		c-0.336-1.11-0.504-2.35-0.504-3.718s0.168-2.612,0.504-3.734c0.335-1.122,0.831-2.079,1.485-2.871
		c0.654-0.792,1.458-1.407,2.412-1.846C79.48,98.541,80.582,98.322,81.83,98.322z M81.83,116.106c1.2,0,2.256-0.21,3.168-0.631
		c0.912-0.42,1.671-1.008,2.277-1.764c0.605-0.756,1.062-1.668,1.368-2.736c0.306-1.067,0.459-2.25,0.459-3.546
		s-0.153-2.48-0.459-3.555c-0.306-1.074-0.762-1.995-1.368-2.763c-0.606-0.769-1.365-1.365-2.277-1.791s-1.968-0.64-3.168-0.64
		c-1.212,0-2.271,0.214-3.177,0.64c-0.906,0.426-1.662,1.022-2.268,1.791c-0.606,0.768-1.062,1.688-1.368,2.763
		s-0.459,2.259-0.459,3.555s0.153,2.479,0.459,3.546c0.306,1.068,0.762,1.98,1.368,2.736s1.362,1.344,2.268,1.764
		C79.559,115.896,80.618,116.106,81.83,116.106z"/>
	<path fill="#FFFFFF" stroke="#FFFFFF" stroke-miterlimit="10" d="M95.545,90.33v25.92h-0.432V90.33H95.545z"/>
	<path fill="#FFFFFF" stroke="#FFFFFF" stroke-miterlimit="10" d="M113.437,116.25c-0.168,0-0.252-0.096-0.252-0.288l-0.108-2.862
		c-0.504,0.528-1.008,1.006-1.512,1.432c-0.504,0.426-1.038,0.786-1.602,1.08c-0.564,0.294-1.17,0.521-1.818,0.684
		s-1.368,0.243-2.16,0.243c-0.528,0-1.06-0.081-1.593-0.243c-0.534-0.162-1.017-0.42-1.449-0.773
		c-0.432-0.354-0.783-0.811-1.053-1.368c-0.27-0.559-0.405-1.239-0.405-2.043c0-0.792,0.231-1.503,0.693-2.134
		c0.462-0.63,1.17-1.166,2.124-1.61s2.157-0.795,3.609-1.053c1.452-0.259,3.174-0.411,5.166-0.46v-2.268
		c0-0.924-0.102-1.752-0.306-2.484c-0.204-0.731-0.504-1.35-0.9-1.854s-0.894-0.891-1.494-1.161c-0.6-0.27-1.296-0.405-2.088-0.405
		c-0.624,0-1.188,0.066-1.692,0.198s-0.954,0.294-1.35,0.486c-0.396,0.191-0.741,0.402-1.035,0.63
		c-0.294,0.228-0.549,0.438-0.765,0.63c-0.216,0.192-0.39,0.354-0.522,0.486c-0.132,0.132-0.228,0.197-0.288,0.197
		c-0.048,0-0.108-0.035-0.18-0.107l-0.072-0.072c0.864-0.912,1.758-1.607,2.682-2.088c0.924-0.479,1.998-0.72,3.222-0.72
		c0.9,0,1.677,0.144,2.331,0.432c0.654,0.288,1.197,0.702,1.629,1.242c0.432,0.54,0.75,1.197,0.954,1.971
		c0.204,0.774,0.306,1.647,0.306,2.619v11.664H113.437z M105.985,116.178c0.828,0,1.578-0.096,2.25-0.288
		c0.672-0.191,1.29-0.449,1.854-0.773c0.564-0.324,1.089-0.699,1.575-1.125c0.486-0.426,0.957-0.873,1.413-1.341v-5.437
		c-3.78,0.12-6.585,0.592-8.415,1.413c-1.83,0.822-2.745,1.983-2.745,3.483c0,0.708,0.117,1.316,0.351,1.826
		c0.234,0.511,0.54,0.931,0.918,1.261s0.81,0.576,1.296,0.737C104.968,116.097,105.469,116.178,105.985,116.178z"/>
	<path fill="#FFFFFF" stroke="#FFFFFF" stroke-miterlimit="10" d="M119.377,116.25V98.61h0.108c0.168,0,0.252,0.096,0.252,0.288
		l0.054,4.896c0.252-0.876,0.564-1.653,0.936-2.331c0.372-0.678,0.81-1.251,1.314-1.719s1.077-0.822,1.719-1.063
		c0.642-0.239,1.365-0.359,2.169-0.359c0.576,0,1.109,0.06,1.602,0.18s0.966,0.288,1.422,0.504l-0.072,0.145
		c-0.024,0.035-0.045,0.068-0.063,0.099s-0.057,0.045-0.117,0.045c-0.061,0-0.159-0.029-0.297-0.09
		c-0.138-0.06-0.318-0.126-0.54-0.198s-0.492-0.138-0.81-0.198c-0.318-0.06-0.693-0.09-1.125-0.09c-1.572,0-2.844,0.517-3.816,1.548
		c-0.972,1.032-1.74,2.496-2.304,4.393v11.592H119.377z"/>
	<path fill="#FFFFFF" stroke="#C64739" stroke-miterlimit="10" d="M153.145,93.354c-0.061,0.072-0.126,0.108-0.198,0.108
		c-0.107,0-0.272-0.123-0.495-0.369c-0.222-0.245-0.546-0.513-0.972-0.801s-0.975-0.555-1.646-0.801
		c-0.673-0.246-1.513-0.369-2.521-0.369c-1.032,0-1.947,0.159-2.745,0.477c-0.798,0.318-1.467,0.741-2.007,1.27
		s-0.951,1.14-1.232,1.836c-0.283,0.696-0.424,1.422-0.424,2.178c0,0.972,0.189,1.782,0.567,2.43
		c0.378,0.648,0.873,1.194,1.485,1.639c0.611,0.444,1.313,0.813,2.105,1.106c0.792,0.295,1.596,0.576,2.412,0.847
		c0.815,0.27,1.62,0.555,2.412,0.854s1.494,0.682,2.105,1.144c0.612,0.462,1.107,1.032,1.485,1.71s0.567,1.527,0.567,2.547
		c0,1.032-0.175,1.995-0.522,2.889c-0.348,0.895-0.853,1.674-1.512,2.34c-0.66,0.666-1.471,1.191-2.431,1.575
		s-2.052,0.576-3.275,0.576c-0.853,0-1.614-0.075-2.286-0.225c-0.673-0.15-1.287-0.366-1.845-0.648
		c-0.559-0.282-1.071-0.624-1.539-1.026c-0.469-0.401-0.918-0.86-1.35-1.377l0.071-0.071c0.036-0.036,0.065-0.063,0.091-0.081
		c0.023-0.019,0.064-0.027,0.125-0.027c0.072,0,0.178,0.075,0.315,0.225c0.138,0.15,0.327,0.343,0.567,0.576
		c0.239,0.234,0.527,0.483,0.863,0.747c0.336,0.265,0.744,0.513,1.225,0.747c0.479,0.234,1.028,0.426,1.646,0.576
		s1.323,0.225,2.115,0.225c1.164,0,2.198-0.186,3.104-0.558s1.675-0.873,2.305-1.503s1.109-1.365,1.439-2.205
		s0.495-1.734,0.495-2.682c0-0.792-0.123-1.477-0.369-2.053s-0.579-1.07-0.999-1.484s-0.909-0.769-1.467-1.063
		s-1.155-0.558-1.791-0.792c-0.636-0.233-1.284-0.45-1.944-0.647c-0.659-0.198-1.308-0.417-1.943-0.657
		c-0.637-0.24-1.233-0.513-1.791-0.819c-0.559-0.306-1.047-0.678-1.467-1.116c-0.42-0.438-0.754-0.96-1-1.565
		c-0.246-0.606-0.368-1.323-0.368-2.151c0-0.804,0.149-1.575,0.45-2.313c0.299-0.738,0.738-1.389,1.313-1.953
		c0.576-0.564,1.287-1.014,2.134-1.351c0.846-0.335,1.814-0.504,2.906-0.504c1.224,0,2.307,0.198,3.249,0.595
		c0.942,0.396,1.827,1.025,2.655,1.89L153.145,93.354z"/>
	<path fill="#FFFFFF" stroke="#C64739" stroke-miterlimit="10" d="M161.677,122.334c-0.036,0.096-0.09,0.186-0.162,0.27
		s-0.162,0.127-0.27,0.127h-0.252l3.023-6.786l-7.632-17.334h0.252c0.096,0,0.174,0.026,0.234,0.081
		c0.06,0.054,0.102,0.11,0.126,0.171l7.02,16.02c0.048,0.108,0.093,0.216,0.135,0.324s0.075,0.222,0.1,0.342
		c0.023-0.12,0.057-0.233,0.099-0.342s0.087-0.216,0.135-0.324l7.021-16.02c0.084-0.168,0.191-0.252,0.324-0.252h0.252
		L161.677,122.334z"/>
	<path fill="#FFFFFF" stroke="#C64739" stroke-miterlimit="10" d="M185.112,100.158c-0.049,0.072-0.108,0.107-0.181,0.107
		c-0.096,0-0.236-0.081-0.423-0.242c-0.186-0.162-0.456-0.343-0.81-0.54c-0.354-0.198-0.801-0.381-1.341-0.55
		c-0.54-0.168-1.206-0.252-1.998-0.252c-0.744,0-1.426,0.114-2.043,0.343c-0.618,0.228-1.149,0.53-1.594,0.908
		c-0.443,0.378-0.789,0.813-1.034,1.306c-0.246,0.492-0.369,1.008-0.369,1.548c0,0.636,0.149,1.167,0.449,1.593
		s0.693,0.786,1.18,1.08c0.485,0.294,1.041,0.543,1.665,0.747s1.26,0.405,1.908,0.603c0.647,0.198,1.283,0.408,1.907,0.631
		c0.624,0.222,1.18,0.501,1.665,0.837c0.486,0.336,0.879,0.747,1.18,1.232c0.3,0.486,0.449,1.089,0.449,1.81
		c0,0.72-0.129,1.397-0.387,2.033c-0.258,0.637-0.633,1.188-1.125,1.656s-1.095,0.84-1.809,1.116
		c-0.715,0.276-1.527,0.414-2.439,0.414c-0.636,0-1.203-0.052-1.701-0.153s-0.96-0.243-1.386-0.423s-0.822-0.401-1.188-0.666
		c-0.366-0.264-0.729-0.558-1.09-0.882l0.108-0.108c0.036-0.036,0.065-0.063,0.09-0.081c0.024-0.018,0.066-0.026,0.126-0.026
		c0.096,0,0.252,0.102,0.468,0.306c0.217,0.204,0.52,0.432,0.909,0.685c0.39,0.252,0.882,0.479,1.477,0.684
		c0.594,0.204,1.322,0.306,2.187,0.306s1.629-0.126,2.295-0.378s1.227-0.597,1.684-1.035c0.455-0.438,0.801-0.947,1.034-1.529
		c0.234-0.582,0.352-1.209,0.352-1.882c0-0.684-0.15-1.251-0.45-1.7c-0.3-0.45-0.693-0.831-1.179-1.144
		c-0.486-0.312-1.041-0.572-1.665-0.783c-0.624-0.209-1.26-0.41-1.908-0.603c-0.648-0.191-1.284-0.396-1.908-0.612
		s-1.179-0.482-1.665-0.801c-0.485-0.317-0.879-0.711-1.179-1.179s-0.45-1.05-0.45-1.746c0-0.588,0.132-1.149,0.396-1.684
		c0.264-0.533,0.636-1.008,1.115-1.422c0.48-0.414,1.054-0.743,1.72-0.989s1.4-0.369,2.205-0.369c0.995,0,1.872,0.135,2.628,0.404
		c0.756,0.271,1.487,0.712,2.195,1.323L185.112,100.158z"/>
	<path fill="#FFFFFF" stroke="#C64739" stroke-miterlimit="10" d="M195.48,116.538c-1.032,0-1.843-0.282-2.431-0.846
		c-0.588-0.564-0.882-1.494-0.882-2.79V99.726h-2.916c-0.168,0-0.252-0.06-0.252-0.18v-0.107l3.168-0.072l0.145-7.092
		c0-0.061,0.015-0.117,0.045-0.172c0.029-0.054,0.074-0.08,0.135-0.08h0.107v7.344h6.013v0.359H192.6v13.177
		c0,0.6,0.075,1.106,0.226,1.521c0.149,0.414,0.356,0.75,0.621,1.008c0.264,0.259,0.569,0.447,0.918,0.567
		c0.348,0.12,0.72,0.18,1.116,0.18c0.504,0,0.944-0.078,1.322-0.233c0.378-0.156,0.699-0.324,0.963-0.504
		c0.265-0.181,0.478-0.349,0.64-0.505c0.162-0.155,0.278-0.233,0.351-0.233c0.048,0,0.096,0.024,0.145,0.072l0.071,0.071
		c-0.18,0.24-0.398,0.466-0.656,0.676c-0.259,0.21-0.54,0.39-0.847,0.539c-0.306,0.15-0.63,0.268-0.972,0.352
		S195.815,116.538,195.48,116.538z"/>
	<path fill="#FFFFFF" stroke="#C64739" stroke-miterlimit="10" d="M209.771,98.322c0.924,0,1.788,0.165,2.592,0.495
		s1.503,0.818,2.098,1.467c0.594,0.647,1.059,1.443,1.395,2.385c0.336,0.942,0.504,2.025,0.504,3.249
		c0,0.061-0.021,0.105-0.063,0.135c-0.043,0.03-0.094,0.045-0.153,0.045h-13.608c-0.023,0.169-0.035,0.33-0.035,0.486
		s0,0.318,0,0.486c0,1.464,0.174,2.757,0.521,3.879s0.843,2.063,1.485,2.826c0.642,0.762,1.416,1.341,2.321,1.736
		c0.906,0.396,1.911,0.595,3.016,0.595c0.996,0,1.851-0.108,2.564-0.324s1.309-0.456,1.782-0.721c0.474-0.264,0.834-0.504,1.08-0.72
		s0.405-0.324,0.478-0.324c0.047,0,0.096,0.024,0.144,0.072l0.072,0.072c-0.204,0.252-0.508,0.513-0.909,0.783
		c-0.402,0.27-0.876,0.519-1.422,0.747c-0.547,0.228-1.144,0.414-1.791,0.558c-0.648,0.144-1.314,0.216-1.998,0.216
		c-1.212,0-2.298-0.213-3.258-0.639c-0.961-0.426-1.773-1.041-2.439-1.845c-0.666-0.805-1.179-1.788-1.539-2.952
		c-0.359-1.164-0.54-2.484-0.54-3.96c0-1.296,0.174-2.481,0.522-3.556c0.348-1.073,0.852-1.994,1.512-2.763
		c0.66-0.768,1.467-1.365,2.421-1.791S208.56,98.322,209.771,98.322z M209.771,98.682c-1.056,0-2.007,0.171-2.853,0.514
		c-0.847,0.342-1.575,0.822-2.188,1.439c-0.612,0.618-1.101,1.365-1.467,2.241s-0.604,1.842-0.711,2.898h13.41
		c0-1.141-0.156-2.151-0.469-3.033c-0.312-0.882-0.746-1.623-1.305-2.224c-0.558-0.6-1.215-1.056-1.971-1.367
		C211.464,98.838,210.647,98.682,209.771,98.682z"/>
	<path fill="#FFFFFF" stroke="#C64739" stroke-miterlimit="10" d="M221.436,116.25V98.61h0.108c0.168,0,0.252,0.096,0.252,0.288
		l0.054,3.329c0.684-1.188,1.518-2.136,2.502-2.844c0.983-0.708,2.052-1.062,3.204-1.062c1.416,0,2.522,0.438,3.321,1.313
		c0.798,0.876,1.293,2.124,1.484,3.744c0.145-0.852,0.394-1.596,0.747-2.231c0.354-0.637,0.783-1.164,1.287-1.584
		s1.064-0.732,1.683-0.937s1.258-0.306,1.917-0.306c0.828,0,1.578,0.144,2.25,0.432c0.673,0.288,1.242,0.711,1.711,1.27
		c0.468,0.558,0.83,1.251,1.089,2.078c0.258,0.828,0.387,1.776,0.387,2.845v11.304H243v-11.304c0-2.028-0.436-3.579-1.306-4.653
		s-2.103-1.611-3.699-1.611c-0.708,0-1.389,0.133-2.043,0.396c-0.653,0.264-1.232,0.657-1.736,1.179
		c-0.504,0.522-0.906,1.173-1.206,1.953s-0.45,1.692-0.45,2.736v11.304h-0.432v-11.304c0-0.984-0.1-1.863-0.297-2.638
		c-0.198-0.773-0.492-1.431-0.883-1.971c-0.39-0.54-0.873-0.951-1.448-1.232c-0.576-0.282-1.236-0.424-1.98-0.424
		c-1.141,0-2.187,0.363-3.141,1.09c-0.954,0.726-1.791,1.73-2.512,3.015v13.464H221.436z"/>
</g>
<g>
</g>
<g>
</g>
<g>
</g>
<g>
</g>
<g>
</g>
<g>
</g>
</svg>
