<?xml version="1.0" encoding="utf-8"?>
<!-- Generator: Adobe Illustrator 19.0.0, SVG Export Plug-In . SVG Version: 6.00 Build 0)  -->
<svg version="1.0" id="Layer_1" xmlns="http://www.w3.org/2000/svg" xmlns:xlink="http://www.w3.org/1999/xlink" x="0px" y="0px"
	 width="72px" height="72px" viewBox="0 0 72 72" style="enable-background:new 0 0 72 72;" xml:space="preserve">
<style type="text/css">
	.st0{fill:#FFFFFF;}
</style>
<path class="st0" d="M24,37.8c0-3.1,0-5.9-0.1-8.6c-0.1-2.6-0.2-5-0.3-7.2H38l0.7,6.9H39c1-1.6,2.8-3.4,5.3-5.2
	c2.5-1.9,5.8-2.8,10-2.8c2.5,0,4.8,0.4,7,1.3c2.2,0.9,4.1,2.2,5.6,3.9c1.6,1.8,2.8,4,3.7,6.7c0.9,2.7,1.4,5.8,1.4,9.5V72H56V44.6
	c0-3.2-0.6-5.8-1.9-8c-1.3-2.2-3.3-3.2-6.1-3.2c-2.1,0-3.8,0.7-5,2.1c-1.2,1.4-2,2.8-2.5,4.2c-0.2,0.5-0.4,1.1-0.4,1.8
	c-0.1,0.7-0.1,1.4-0.1,2V72H24V37.8z M0,72V20h16v52H0z M16,8c0,2.1-0.7,4-2.1,5.5c-1.4,1.6-3.3,2.3-5.9,2.3c-2.4,0-4.4-0.8-5.9-2.3
	C0.7,12.2,0,10.3,0,8.2c0-2.1,0.7-4,2.1-5.7S5.5,0,8,0c2.4,0,4.4,0.8,5.8,2.4C15.2,4,16,5.9,16,8z"/>
</svg>
