<?xml version="1.0" encoding="utf-8"?>
<!-- Generator: Adobe Illustrator 19.0.0, SVG Export Plug-In . SVG Version: 6.00 Build 0)  -->
<svg version="1.0" id="Warstwa_1" xmlns="http://www.w3.org/2000/svg" xmlns:xlink="http://www.w3.org/1999/xlink" x="0px" y="0px"
	 viewBox="0 0 116.5 75.3" style="enable-background:new 0 0 116.5 75.3;" xml:space="preserve">
<style type="text/css">
	.st0{fill:#FFFFFF;}
</style>
<g>
	<g>
		<g>
			<path class="st0" d="M47.1,18.9c0-0.3,0.2-0.5,0.5-0.5H53c0.3,0,0.5,0.2,0.5,0.5s-0.2,0.5-0.5,0.5h-4.9v3.1h4.4
				c0.3,0,0.5,0.2,0.5,0.5c0,0.3-0.2,0.5-0.5,0.5h-4.4v3.4c0,0.3-0.2,0.5-0.5,0.5c-0.3,0-0.5-0.2-0.5-0.5V18.9z"/>
			<path class="st0" d="M54.7,22.8L54.7,22.8c0-2.4,1.8-4.6,4.5-4.6s4.5,2.1,4.5,4.5v0c0,2.4-1.8,4.5-4.5,4.5
				C56.5,27.3,54.7,25.2,54.7,22.8z M62.6,22.8L62.6,22.8c0-2-1.5-3.6-3.5-3.6s-3.4,1.6-3.4,3.6v0c0,2,1.5,3.6,3.5,3.6
				S62.6,24.8,62.6,22.8z"/>
			<path class="st0" d="M65.4,22.8L65.4,22.8c0-2.4,1.8-4.6,4.5-4.6s4.5,2.1,4.5,4.5v0c0,2.4-1.8,4.5-4.5,4.5
				C67.2,27.3,65.4,25.2,65.4,22.8z M73.3,22.8L73.3,22.8c0-2-1.5-3.6-3.5-3.6s-3.4,1.6-3.4,3.6v0c0,2,1.5,3.6,3.5,3.6
				S73.3,24.8,73.3,22.8z"/>
			<path class="st0" d="M78.1,19.3h-2.5c-0.3,0-0.5-0.2-0.5-0.5c0-0.3,0.2-0.5,0.5-0.5h6.1c0.3,0,0.5,0.2,0.5,0.5
				c0,0.3-0.2,0.5-0.5,0.5h-2.5v7.4c0,0.3-0.2,0.5-0.5,0.5s-0.5-0.2-0.5-0.5V19.3z"/>
			<path class="st0" d="M83.9,18.9c0-0.3,0.2-0.5,0.5-0.5h3.2c1,0,1.8,0.3,2.3,0.8c0.4,0.4,0.6,0.8,0.6,1.4v0c0,1.1-0.7,1.7-1.4,2
				c1,0.3,1.9,0.9,1.9,2.1v0c0,1.5-1.3,2.4-3.2,2.4h-3.4c-0.3,0-0.5-0.2-0.5-0.5V18.9z M87.5,22.3c1.2,0,2-0.5,2-1.6v0
				c0-0.9-0.7-1.4-1.9-1.4h-2.7v3H87.5z M87.8,26.3c1.3,0,2.2-0.6,2.2-1.6v0c0-1-0.8-1.5-2.3-1.5h-2.8v3.1H87.8z"/>
			<path class="st0" d="M92.4,26.5l3.6-7.8c0.1-0.3,0.3-0.4,0.6-0.4h0c0.3,0,0.5,0.2,0.6,0.4l3.6,7.8c0,0.1,0.1,0.2,0.1,0.3
				c0,0.3-0.2,0.5-0.5,0.5c-0.2,0-0.4-0.2-0.5-0.4l-0.9-2h-4.8l-0.9,2c-0.1,0.2-0.3,0.3-0.5,0.3c-0.3,0-0.5-0.2-0.5-0.5
				C92.4,26.7,92.4,26.6,92.4,26.5z M98.6,23.9l-2-4.5l-2,4.5H98.6z"/>
			<path class="st0" d="M102.8,18.8c0-0.3,0.2-0.5,0.5-0.5c0.3,0,0.5,0.2,0.5,0.5v7.4h4.5c0.3,0,0.5,0.2,0.5,0.5
				c0,0.3-0.2,0.5-0.5,0.5h-5c-0.3,0-0.5-0.2-0.5-0.5V18.8z"/>
			<path class="st0" d="M110.5,18.8c0-0.3,0.2-0.5,0.5-0.5c0.3,0,0.5,0.2,0.5,0.5v7.4h4.5c0.3,0,0.5,0.2,0.5,0.5
				c0,0.3-0.2,0.5-0.5,0.5h-5c-0.3,0-0.5-0.2-0.5-0.5V18.8z"/>
		</g>
		<g>
			<path class="st0" d="M47.1,33.9c0-0.3,0.2-0.5,0.5-0.5h3.2c1,0,1.8,0.3,2.3,0.8c0.4,0.4,0.6,0.8,0.6,1.4v0c0,1.1-0.7,1.7-1.4,2
				c1,0.3,1.9,0.9,1.9,2.1v0c0,1.5-1.3,2.4-3.2,2.4h-3.4c-0.3,0-0.5-0.2-0.5-0.5V33.9z M50.7,37.3c1.2,0,2-0.5,2-1.6v0
				c0-0.9-0.7-1.4-1.9-1.4h-2.7v3H50.7z M51,41.3c1.3,0,2.2-0.6,2.2-1.6v0c0-1-0.8-1.5-2.3-1.5h-2.8v3.1H51z"/>
			<path class="st0" d="M56.1,41.7v-7.8c0-0.3,0.2-0.5,0.5-0.5h5.4c0.3,0,0.5,0.2,0.5,0.5s-0.2,0.5-0.5,0.5h-4.9v3h4.4
				c0.3,0,0.5,0.2,0.5,0.5c0,0.3-0.2,0.5-0.5,0.5h-4.4v3.1h5c0.3,0,0.5,0.2,0.5,0.5c0,0.3-0.2,0.5-0.5,0.5h-5.5
				C56.4,42.2,56.1,41.9,56.1,41.7z"/>
			<path class="st0" d="M66.8,34.3h-2.5c-0.3,0-0.5-0.2-0.5-0.5c0-0.3,0.2-0.5,0.5-0.5h6.1c0.3,0,0.5,0.2,0.5,0.5
				c0,0.3-0.2,0.5-0.5,0.5h-2.5v7.4c0,0.3-0.2,0.5-0.5,0.5s-0.5-0.2-0.5-0.5V34.3z"/>
		</g>
		<g>
			<path class="st0" d="M47.1,56.7v-7.8c0-0.3,0.2-0.5,0.5-0.5H53c0.3,0,0.5,0.2,0.5,0.5s-0.2,0.5-0.5,0.5h-4.9v3h4.4
				c0.3,0,0.5,0.2,0.5,0.5c0,0.3-0.2,0.5-0.5,0.5h-4.4v3.1h5c0.3,0,0.5,0.2,0.5,0.5c0,0.3-0.2,0.5-0.5,0.5h-5.5
				C47.3,57.2,47.1,57,47.1,56.7z"/>
			<path class="st0" d="M55.2,56.4l2.9-3.7l-2.8-3.5c-0.1-0.1-0.2-0.2-0.2-0.4c0-0.3,0.2-0.5,0.5-0.5c0.2,0,0.3,0.1,0.4,0.3l2.6,3.4
				l2.6-3.4c0.1-0.2,0.3-0.3,0.5-0.3c0.2,0,0.5,0.2,0.5,0.5c0,0.1,0,0.3-0.1,0.4l-2.8,3.5l2.9,3.7c0.1,0.1,0.2,0.2,0.2,0.4
				c0,0.3-0.2,0.5-0.5,0.5c-0.2,0-0.3-0.1-0.4-0.3l-2.8-3.6L56,57c-0.1,0.2-0.3,0.3-0.5,0.3s-0.4-0.2-0.4-0.5
				C55.1,56.7,55.1,56.5,55.2,56.4z"/>
			<path class="st0" d="M64.5,48.9c0-0.3,0.2-0.5,0.5-0.5h2.8c2,0,3.3,1.1,3.3,2.8v0c0,1.9-1.6,2.9-3.4,2.9h-2.1v2.7
				c0,0.3-0.2,0.5-0.5,0.5c-0.3,0-0.5-0.2-0.5-0.5V48.9z M67.6,53.2c1.5,0,2.4-0.8,2.4-1.9v0c0-1.3-0.9-1.9-2.4-1.9h-2.2v3.9H67.6z"
				/>
			<path class="st0" d="M72.8,56.7v-7.8c0-0.3,0.2-0.5,0.5-0.5h5.4c0.3,0,0.5,0.2,0.5,0.5s-0.2,0.5-0.5,0.5h-4.9v3h4.4
				c0.3,0,0.5,0.2,0.5,0.5c0,0.3-0.2,0.5-0.5,0.5h-4.4v3.1h5c0.3,0,0.5,0.2,0.5,0.5c0,0.3-0.2,0.5-0.5,0.5h-5.5
				C73.1,57.2,72.8,57,72.8,56.7z"/>
			<path class="st0" d="M81.2,48.9c0-0.3,0.2-0.5,0.5-0.5H85c1.1,0,1.9,0.3,2.5,0.9c0.4,0.4,0.7,1,0.7,1.7v0c0,1.4-1,2.3-2.3,2.5
				l2.2,2.8c0.1,0.1,0.2,0.2,0.2,0.4c0,0.3-0.3,0.5-0.5,0.5c-0.2,0-0.4-0.1-0.5-0.3l-2.5-3.2h-2.5v3c0,0.3-0.2,0.5-0.5,0.5
				c-0.3,0-0.5-0.2-0.5-0.5V48.9z M84.9,52.9c1.3,0,2.3-0.7,2.3-1.8v0c0-1.1-0.8-1.7-2.2-1.7h-2.7v3.6H84.9z"/>
			<path class="st0" d="M92.5,49.3H90c-0.3,0-0.5-0.2-0.5-0.5c0-0.3,0.2-0.5,0.5-0.5h6.1c0.3,0,0.5,0.2,0.5,0.5
				c0,0.3-0.2,0.5-0.5,0.5h-2.5v7.4c0,0.3-0.2,0.5-0.5,0.5s-0.5-0.2-0.5-0.5V49.3z"/>
		</g>
	</g>
	<g>
		<g>
			<path class="st0" d="M22.3,57.8L9.8,50.4c-0.5-0.3-1.1-0.2-1.5,0.2l-3.4,3.6c-0.4,0.4-0.5,1-0.2,1.5c3.9,7.2,10.1,13,17.6,16.4
				c0.6,0.3,1.3,0.1,1.6-0.5l2.5-3.9c0.2-0.4,0.3-0.8,0.1-1.2l-3.5-8.2C22.7,58.1,22.6,57.9,22.3,57.8"/>
		</g>
		<g>
			<path class="st0" d="M29.3,70.3L28,72.5c-0.4,0.7,0,1.7,0.8,1.9c1.8,0.5,3.7,0.8,5.7,0.9c0.7,0.1,1.4-0.5,1.4-1.3V71
				c0-0.7-0.6-1.3-1.3-1.3h-4.2C29.9,69.7,29.5,69.9,29.3,70.3"/>
		</g>
		<g>
			<path class="st0" d="M31,65.2h3.5c0.7,0,1.3-0.6,1.3-1.3v-8.7c0-1-1-1.6-1.9-1.1l-6,3.5c-0.6,0.3-0.8,1-0.5,1.6l2.5,5.2
				C30.1,64.9,30.6,65.2,31,65.2"/>
		</g>
		<g>
			<path class="st0" d="M6.5,37.7V30c0-0.3-0.1-0.6-0.4-0.9l-2.6-2.6c-0.7-0.7-1.8-0.4-2.1,0.5C0.5,30.4,0,34,0,37.6
				c0,3.7,0.5,7.4,1.6,10.8c0.3,0.9,1.4,1.2,2.1,0.5l2.5-2.5c0.2-0.2,0.4-0.6,0.4-0.9V37.7z"/>
		</g>
		<g>
			<path class="st0" d="M11.4,29.1c-0.4,0.2-0.6,0.6-0.6,1.1v7.6v7.6c0,0.4,0.2,0.9,0.6,1.1L24.5,54c0.4,0.2,0.9,0.2,1.3,0l9.4-5.8
				c0.4-0.2,0.6-0.6,0.6-1.1v-9.3v-9.3c0-0.4-0.2-0.8-0.6-1.1l-9.4-5.8c-0.4-0.2-0.9-0.2-1.3,0L11.4,29.1z"/>
		</g>
		<g>
			<path class="st0" d="M22.8,17.1L26.4,9c0.2-0.4,0.1-0.8-0.1-1.2l-2.6-4.1c-0.3-0.5-1-0.7-1.6-0.5C14.6,6.7,8.4,12.5,4.5,19.8
				c-0.3,0.5-0.2,1.1,0.2,1.5l3.5,3.6c0.4,0.4,1,0.5,1.5,0.2l12.6-7.3C22.6,17.6,22.7,17.4,22.8,17.1"/>
		</g>
		<g>
			<path class="st0" d="M35.8,4.5V1.3c0-0.7-0.6-1.3-1.4-1.3c-2,0.2-3.9,0.5-5.8,1c-0.8,0.2-1.2,1.1-0.8,1.9l1.4,2.3
				c0.2,0.4,0.6,0.6,1.1,0.6h4.2C35.3,5.8,35.8,5.2,35.8,4.5"/>
		</g>
		<g>
			<path class="st0" d="M35.8,20.3v-8.7c0-0.7-0.6-1.3-1.3-1.3H31c-0.5,0-0.9,0.3-1.1,0.7l-2.5,5.2c-0.3,0.6-0.1,1.3,0.5,1.6l6,3.5
				C34.8,21.8,35.8,21.2,35.8,20.3"/>
		</g>
	</g>
	<g>
		<path class="st0" d="M41.1,68.8L41.1,68.8c0.3,0,0.5-0.2,0.5-0.4V7c0-0.2-0.2-0.4-0.4-0.4h-0.1c-0.2,0-0.4,0.2-0.4,0.4v61.5
			C40.7,68.6,40.9,68.8,41.1,68.8"/>
	</g>
</g>
</svg>
