<?xml version="1.0" encoding="utf-8"?>
<!-- Generator: Adobe Illustrator 19.0.0, SVG Export Plug-In . SVG Version: 6.00 Build 0)  -->
<svg version="1.0" id="Layer_1" xmlns="http://www.w3.org/2000/svg" xmlns:xlink="http://www.w3.org/1999/xlink" x="0px" y="0px"
	 viewBox="0 0 60 60" style="enable-background:new 0 0 60 60;" xml:space="preserve">
<style type="text/css">
	.st0{fill:#FFFFFF;}
</style>
<path class="st0" d="M8.8,38.9c4.1,4.1,9.1,6.1,15,6.1c5.8,0,10.8-2.1,15-6.3s6.3-9.2,6.3-15s-2.1-10.8-6.3-15s-9.2-6.3-15-6.3
	s-10.8,2.1-15,6.3s-6.3,9.2-6.3,15C2.5,29.7,4.6,34.7,8.8,38.9z M60,56.4L56.4,60L38.8,42.3c-4.3,3.4-9.3,5.2-15,5.2
	c-6.6,0-12.2-2.3-16.8-7c-4.6-4.6-7-10.2-7-16.8S2.3,11.6,7,7c4.6-4.6,10.2-7,16.8-7s12.2,2.3,16.8,7c4.6,4.6,7,10.2,7,16.8
	c0,5.6-1.7,10.6-5.2,14.8L60,56.4z"/>
</svg>
