<?xml version="1.0" encoding="utf-8"?>
<!-- Generator: Adobe Illustrator 19.0.0, SVG Export Plug-In . SVG Version: 6.00 Build 0)  -->
<svg version="1.0" id="Layer_1" xmlns="http://www.w3.org/2000/svg" xmlns:xlink="http://www.w3.org/1999/xlink" x="0px" y="0px"
	 viewBox="-275 367 60 60" style="enable-background:new -275 367 60 60;" xml:space="preserve">
<path d="M-266.2,405.9c4.1,4.1,9.1,6.1,15,6.1c5.8,0,10.8-2.1,15-6.3c4.2-4.2,6.3-9.2,6.3-15c0-5.8-2.1-10.8-6.3-15
	c-4.2-4.2-9.2-6.3-15-6.3s-10.8,2.1-15,6.3c-4.2,4.2-6.3,9.2-6.3,15C-272.5,396.7-270.4,401.7-266.2,405.9z M-215,423.4l-3.6,3.6
	l-17.6-17.7c-4.3,3.4-9.3,5.2-15,5.2c-6.6,0-12.2-2.3-16.8-7c-4.6-4.6-7-10.2-7-16.8c0-6.6,2.3-12.1,7-16.7c4.6-4.6,10.2-7,16.8-7
	s12.2,2.3,16.8,7c4.6,4.6,7,10.2,7,16.8c0,5.6-1.7,10.6-5.2,14.8L-215,423.4z"/>
</svg>
