<?xml version="1.0" encoding="utf-8"?>
<!-- Generator: Adobe Illustrator 19.0.0, SVG Export Plug-In . SVG Version: 6.00 Build 0)  -->
<svg version="1.0" id="Layer_1" xmlns="http://www.w3.org/2000/svg" xmlns:xlink="http://www.w3.org/1999/xlink" x="0px" y="0px"
	 width="80.3px" height="65px" viewBox="0 0 80.3 65" style="enable-background:new 0 0 80.3 65;" xml:space="preserve">
<style type="text/css">
	.st0{fill:#FFFFFF;}
</style>
<path class="st0" d="M78,1.3c-3.2,1.9-6.7,3.2-10.5,3.9C64.3,1.7,60.3,0,55.5,0C51,0,47.1,1.6,43.9,4.8s-4.8,7.1-4.8,11.6
	c0,1.3,0.2,2.5,0.5,3.8c-6.7-0.3-12.9-2-18.8-5C14.8,12.1,9.8,8.1,5.8,3c-1.6,2.5-2.3,5.3-2.3,8.3c0,5.8,2.4,10.4,7.3,13.6
	c-2.6,0-5.1-0.7-7.3-2v0.3c0,3.9,1.2,7.3,3.7,10.3s5.6,4.9,9.5,5.8c-1.5,0.3-2.9,0.5-4.4,0.5c-1,0-2.1-0.1-3.1-0.3
	c1.1,3.3,3.1,6.1,5.9,8.2c2.8,2.1,5.9,3.2,9.5,3.2c-5.9,4.7-12.7,7-20.3,7c-1.3,0-2.6-0.1-3.9-0.2C7.9,62.6,16.2,65,25.3,65
	c7.3,0,14-1.4,20-4.2s11-6.5,14.8-11c3.8-4.5,6.7-9.5,8.8-15c2.1-5.5,3.1-11,3.1-16.5c0-0.7,0-1.4,0-2c3.2-2.4,5.9-5.3,8.1-8.6
	c-3,1.4-6.1,2.2-9.4,2.7C74.3,8.1,76.7,5.1,78,1.3z"/>
</svg>
