<?xml version="1.0" encoding="utf-8"?>
<!-- Generator: Adobe Illustrator 19.0.0, SVG Export Plug-In . SVG Version: 6.00 Build 0)  -->
<svg version="1.0" id="Layer_1" xmlns="http://www.w3.org/2000/svg" xmlns:xlink="http://www.w3.org/1999/xlink" x="0px" y="0px"
	 width="66.2px" height="80px" viewBox="0 0 66.2 80" style="enable-background:new 0 0 66.2 80;" xml:space="preserve">
<path d="M53.1,7.6v22.3H49v-2.5c-1.6,1.8-3.1,2.8-4.6,2.8c-1.4,0-2.2-0.6-2.6-1.7c-0.2-0.7-0.4-1.8-0.4-3.3V7.6h4.1V24
	c0,1,0,1.5,0,1.6c0.1,0.7,0.4,1,0.9,1c0.8,0,1.7-0.6,2.5-1.9v-17H53.1z M38.1,14.9v7.8c0,2.4-0.4,4.2-1.3,5.3
	c-1.1,1.5-2.7,2.3-4.7,2.3c-2,0-3.6-0.8-4.7-2.3c-0.8-1.1-1.3-2.9-1.3-5.3v-7.8c0-2.4,0.4-4.1,1.3-5.2c1.1-1.5,2.7-2.3,4.7-2.3
	c2.1,0,3.6,0.8,4.7,2.3C37.7,10.7,38.1,12.5,38.1,14.9z M21.6,0h4.6l-5.4,17.8v12.1h-4.5V17.8c-0.4-2.2-1.3-5.4-2.7-9.5
	c-1.1-3.1-2.1-5.8-2.9-8.3h4.7l3.2,11.7L21.6,0z M66.2,57c0,7-0.4,12.2-1.2,15.6c-0.4,1.8-1.3,3.2-2.6,4.4c-1.3,1.2-2.8,1.9-4.6,2.1
	C52.4,79.7,44.1,80,33.1,80s-19.3-0.3-24.8-0.9c-1.7-0.2-3.3-0.9-4.6-2.1s-2.2-2.7-2.6-4.4C0.4,69.3,0,64,0,57
	c0-7,0.4-12.2,1.2-15.6c0.4-1.8,1.3-3.2,2.6-4.4c1.3-1.2,2.8-1.9,4.6-2.1c5.4-0.6,13.7-0.9,24.7-0.9s19.3,0.3,24.8,0.9
	c1.7,0.2,3.3,0.9,4.6,2.1c1.3,1.2,2.2,2.7,2.6,4.4C65.8,44.7,66.2,49.9,66.2,57z M34.1,23.4v-9.4c0-2.1-0.6-3.1-1.9-3.1
	s-1.9,1-1.9,3.1v9.4c0,2.1,0.6,3.1,1.9,3.1S34.1,25.5,34.1,23.4z M61.2,64.2v-0.6h-4.1c0,1.5,0,2.4-0.1,2.7
	c-0.2,1.1-0.8,1.6-1.8,1.6c-1.4,0-2.1-1-2.1-3.1V61h8v-4.6c0-2.4-0.4-4.1-1.2-5.2c-1.2-1.5-2.7-2.3-4.7-2.3c-2,0-3.6,0.8-4.8,2.3
	c-0.8,1.1-1.3,2.8-1.3,5.2v7.7c0,2.4,0.4,4.1,1.3,5.2c1.2,1.5,2.8,2.3,4.8,2.3c2.1,0,3.8-0.8,4.8-2.4c0.5-0.8,0.8-1.6,0.9-2.4
	C61.2,66.5,61.2,65.7,61.2,64.2z M46.1,64.6v-8.8c0-2.2-0.1-3.6-0.4-4.4c-0.5-1.7-1.6-2.5-3.2-2.5c-1.5,0-2.9,0.8-4.2,2.4v-9.7h-4
	v29.6h4v-2.1c1.3,1.6,2.7,2.5,4.2,2.5c1.6,0,2.7-0.8,3.2-2.5C46,68.3,46.1,66.8,46.1,64.6z M27,71.3h4V49.2h-4v16.9
	c-0.9,1.3-1.7,1.9-2.5,1.9c-0.5,0-0.8-0.3-0.9-0.9c0-0.1,0-0.6,0-1.6V49.2h-4v17.5c0,1.5,0.1,2.5,0.4,3.3c0.4,1.1,1.2,1.7,2.6,1.7
	c1.4,0,2.9-0.9,4.6-2.7V71.3z M14.1,45.8h4.8v-4.2H5v4.2h4.7v25.4h4.5V45.8z M57.2,55.6v2.1h-4v-2.1c0-2,0.7-3,2-3
	C56.6,52.5,57.2,53.6,57.2,55.6z M42.1,55.5V65c0,2-0.6,3-1.7,3c-0.7,0-1.4-0.3-2-1V53.5c0.7-0.7,1.3-1,2-1
	C41.6,52.5,42.1,53.5,42.1,55.5z"/>
</svg>
